{"title":"Colombiana.2011.DVDRip.x264.AC3.RoSub-Psycho","uid":6735036,"size":838397014,"categoryP":"video","categoryS":"movies","magnet":"?xt=urn:btih:0fb231a695cdb48fe5490999908633012a9825d2&amp;dn=Colombiana.2011.DVDRip.x264.AC3.RoSub-Psycho&amp;tr=udp%3A%2F%2Ftracker.openbittorrent.com%3A80&amp;tr=udp%3A%2F%2Fopen.demonii.com%3A1337&amp;tr=udp%3A%2F%2Ftracker.coppersurfer.tk%3A6969&amp;tr=udp%3A%2F%2Fexodus.desync.com%3A6969","seeders":0,"leechers":0,"uploader":"Francisco1206","files":-1,"time":1318301735,"description":"A young woman, after witnessing her parents' murder as a child in Bogota, grows up to be a stone-cold assassin. \n\nIMDB rating: 5.9/10 (from 5,776 users)\n\nSOURCE: Colombiana.2011.DvD.Ro.PAL-GoldenDvD\n\nSAMPLE INCLUDED:30s/3.7mb\n\nCAST:\n\nZoe Saldana..................Cataleya\nJordi MollÃƒÂ ..................Marco\nLennie James.................Ross\nAmandla Stenberg.............Cat - 10\nMichael Varta................Danny Delanay\nCliff Curtis.................Emilio Restrepo\nBeto Benites.................Don Luis\nJesse Borrego................Fabio\nCynthia Addai-Robinson.......Alicia\nAngel Garnica................Pepe\nOfelia Medina................Mama\nCallum Blue..................Richard\nSam Douglas..................William Woogard\nGraham McTavish..............Head Marshall Warren\nCharles Maquignon............Sergeant Bill Attwood \n\nGeneral\n*******\nFormat                           : Matroska\nFile size                        : 796 MiB\nDuration                         : 1h 47mn\nOverall bit rate                 : 1 032 Kbps\nEncoded date                     : UTC 2011-10-11 00:52:42\nWriting application              : mkvmerge v5.0.0 ('Die Wahre Liebe') built on Sep 25 2011 20:33:49\nWriting library                  : libebml v1.2.2 + libmatroska v1.3.0\n\nVideo\n*****\nID                               : 1\nFormat                           : AVC\nFormat/Info                      : Advanced Video Codec\nFormat profile                   : &lt;a class=&quot;__cf_email__&quot; href=&quot;/cdn-cgi/l/email-protection&quot; data-cfemail=&quot;6b260a02052b27594559&quot;&gt;[email&amp;#160;protected]&lt;/a&gt;&lt;script cf-hash='f9e31' type=&quot;text/javascript&quot;&gt;\n/* &lt;![CDATA[ */!function(){try{var t=&quot;currentScript&quot;in document?document.currentScript:function(){for(var t=document.getElementsByTagName(&quot;script&quot;),e=t.length;e--;)if(t[e].getAttribute(&quot;cf-hash&quot;))return t[e]}();if(t&amp;&amp;t.previousSibling){var e,r,n,i,c=t.previousSibling,a=c.getAttribute(&quot;data-cfemail&quot;);if(a){for(e=&quot;&quot;,r=parseInt(a.substr(0,2),16),n=2;a.length-n;n+=2)i=parseInt(a.substr(n,2),16)^r,e+=String.fromCharCode(i);e=document.createTextNode(e),c.parentNode.replaceChild(e,c)}}}catch(u){}}();/* ]]&gt; */&lt;/script&gt;\nFormat settings, CABAC           : Yes\nFormat settings, ReFrames        : 4 frames\nMuxing mode                      : Container profile=&lt;a class=&quot;__cf_email__&quot; href=&quot;/cdn-cgi/l/email-protection&quot; data-cfemail=&quot;6633080d0809110826544854&quot;&gt;[email&amp;#160;protected]&lt;/a&gt;&lt;script cf-hash='f9e31' type=&quot;text/javascript&quot;&gt;\n/* &lt;![CDATA[ */!function(){try{var t=&quot;currentScript&quot;in document?document.currentScript:function(){for(var t=document.getElementsByTagName(&quot;script&quot;),e=t.length;e--;)if(t[e].getAttribute(&quot;cf-hash&quot;))return t[e]}();if(t&amp;&amp;t.previousSibling){var e,r,n,i,c=t.previousSibling,a=c.getAttribute(&quot;data-cfemail&quot;);if(a){for(e=&quot;&quot;,r=parseInt(a.substr(0,2),16),n=2;a.length-n;n+=2)i=parseInt(a.substr(n,2),16)^r,e+=String.fromCharCode(i);e=document.createTextNode(e),c.parentNode.replaceChild(e,c)}}}catch(u){}}();/* ]]&gt; */&lt;/script&gt;\nCodec ID                         : V_MPEG4/ISO/AVC\nDuration                         : 1h 47mn\nBit rate                         : 884 Kbps\nNominal bit rate                 : 903 Kbps\nWidth                            : 720 pixels\nHeight                           : 288 pixels\nDisplay aspect ratio             : 2.500\nFrame rate                       : 23.976 fps\nResolution                       : 8 bits\nColorimetry                      : 4:2:0\nScan type                        : Progressive\nBits/(Pixel*Frame)               : 0.178\nStream size                      : 681 MiB (86%)\nWriting library                  : x264 core 112\n\n\nAudio\n*****\nID                               : 2\nFormat                           : AC-3\nFormat/Info                      : Audio Coding 3\nCodec ID                         : A_AC3\nDuration                         : 1h 47mn\nBit rate mode                    : Constant\nBit rate                         : 128 Kbps\nChannel(s)                       : 2 channels\nChannel positions                : Front: L R\nSampling rate                    : 48.0 KHz\nStream size                      : 98.7 MiB (12%)\n\nText(subtitles)\n***************\nID                               : 3\nFormat                           : UTF-8\nCodec ID                         : S_TEXT/UTF8\nCodec ID/Info                    : UTF-8 Plain Text\nLanguage                         : Romanian\nLanguage                         : Spanish\nLanguage                         : Italian\nLanguage                         : English\n\nPLEASE SEED FOR AS LONG AS POSSIBLE!\n\n","torrent":{"xt":"urn:btih:0fb231a695cdb48fe5490999908633012a9825d2","amp;dn":"Colombiana.2011.DVDRip.x264.AC3.RoSub-Psycho","amp;tr":["udp%3A%2F%2Ftracker.openbittorrent.com%3A80","udp%3A%2F%2Fopen.demonii.com%3A1337","udp%3A%2F%2Ftracker.coppersurfer.tk%3A6969","udp%3A%2F%2Fexodus.desync.com%3A6969"],"infoHash":"0fb231a695cdb48fe5490999908633012a9825d2","infoHashBuffer":{"type":"Buffer","data":[15,178,49,166,149,205,180,143,229,73,9,153,144,134,51,1,42,152,37,210]},"announce":[],"urlList":[]}}